<?xml version="1.0" standalone="no"?>
<!DOCTYPE svg PUBLIC "-//W3C//DTD SVG 20010904//EN"
 "http://www.w3.org/TR/2001/REC-SVG-20010904/DTD/svg10.dtd">
<svg version="1.0" xmlns="http://www.w3.org/2000/svg"
 width="1244.000000pt" height="1280.000000pt" viewBox="0 0 1244.000000 1280.000000"
 preserveAspectRatio="xMidYMid meet">
<metadata>
Created by potrace 1.15, written by Peter Selinger 2001-2017
</metadata>
<g transform="translate(0.000000,1280.000000) scale(0.100000,-0.100000)"
fill="#000000" stroke="none">
<path d="M5313 12051 l-753 -748 0 629 0 628 -1335 0 -1335 0 0 -1963 0 -1962
-945 -945 -945 -945 0 -142 0 -143 523 -2 522 -3 3 -3227 2 -3228 5160 0 5160
0 0 3230 0 3230 535 0 536 0 -3 148 -3 148 -3099 3020 -3099 3019 -86 2 -86 2
-752 -748z"/>
</g>
</svg>
